<svg width="70" height="45" viewBox="0 0 70 45" fill="none" xmlns="http://www.w3.org/2000/svg">
<path d="M8.60273 1.31703L5.07197 21.4928H0L3.55878 1.31703H8.60273Z" fill="white"/>
<path d="M23.1255 21.4928H17.9134L15.9239 17.5978L12.5613 21.4928H7.34918L13.4019 14.5994L9.75907 7.81811H15.0552L16.9607 11.6571L20.2393 7.81811H25.5354L19.4546 14.6274L23.1255 21.4928Z" fill="white"/>
<path d="M31.3915 17.906C31.8212 17.906 32.2042 17.8126 32.5404 17.6258L32.4003 20.7923C31.5223 21.5208 30.5229 21.8851 29.402 21.8851C27.702 21.8851 26.5998 21.4928 26.0954 20.7082C25.7591 20.1851 25.591 19.634 25.591 19.0549C25.591 18.4571 25.6284 17.934 25.7031 17.4857L27.3844 8.01427H32.1481L30.5789 16.8412C30.5602 16.9533 30.5509 17.056 30.5509 17.1494C30.5509 17.6538 30.8311 17.906 31.3915 17.906ZM27.9448 3.44669C27.9448 2.25109 28.2064 1.38241 28.7295 0.840656C29.2712 0.280219 30.1025 0 31.2234 0C32.7926 0 33.5773 0.691207 33.5773 2.07362C33.5773 3.25054 33.3064 4.10988 32.7646 4.65164C32.2415 5.19339 31.4102 5.46427 30.2707 5.46427C28.7201 5.46427 27.9448 4.79175 27.9448 3.44669Z" fill="white"/>
<path d="M9.75162 30.6967L14.4873 23.6072H19.5313L10.9005 36.0209L9.52745 43.783H4.45548L5.82856 36.0209L1.56923 23.6072H6.92141L9.10712 30.6967H9.75162Z" fill="white"/>
<path d="M23.7781 44.1753C19.8924 44.1753 17.9496 42.8302 17.9496 40.1401C17.9496 39.7665 17.9869 39.3648 18.0616 38.9352L18.6501 35.4605C18.9677 33.667 19.7897 32.294 21.116 31.3412C22.4611 30.3698 24.2358 29.8841 26.4402 29.8841C30.1951 29.8841 32.0726 31.3039 32.0726 34.1434C32.0726 34.5544 32.0352 35.0028 31.9605 35.4885L31.6243 37.478H23.0776L22.9655 38.1225C22.9281 38.3467 22.9094 38.5522 22.9094 38.739C22.9094 39.7665 23.5166 40.2802 24.7309 40.2802C25.1792 40.2802 25.5622 40.1401 25.8798 39.8599C26.1973 39.5797 26.3842 39.2528 26.4402 38.8791L31.0918 38.9352C30.4754 42.4286 28.0375 44.1753 23.7781 44.1753ZM27.1408 35.7687C27.2155 35.4511 27.2528 35.1616 27.2528 34.9C27.2528 34.6198 27.1314 34.3396 26.8886 34.0594C26.6457 33.7791 26.2534 33.639 25.7116 33.639C25.1886 33.639 24.7028 33.8165 24.2545 34.1714C23.8248 34.5264 23.5259 35.0588 23.3578 35.7687H27.1408Z" fill="white"/>
<path d="M39.5757 44.1753C37.4087 44.1753 35.8488 43.6896 34.896 42.7181C34.1861 42.0082 33.8312 41.0555 33.8312 39.8599C33.8312 39.4676 33.8686 39.0473 33.9433 38.5989L35.8488 27.7544L40.9768 25.6248L40.1642 30.3044H47.8982L47.1976 34.2555H39.4636L38.9032 37.422C38.8284 37.7769 38.7911 38.0945 38.7911 38.3747C38.7911 39.5517 39.3515 40.1401 40.4724 40.1401C41.0702 40.1401 41.5652 39.8879 41.9576 39.3835C42.3685 38.8791 42.6488 38.2066 42.7982 37.3659H47.4498C46.6652 41.9055 44.0405 44.1753 39.5757 44.1753Z" fill="white"/>
<path d="M57.3368 29.9121C59.3543 29.9121 60.8769 30.3511 61.9043 31.2291C62.7076 31.9204 63.1093 32.8824 63.1093 34.1154C63.1093 34.5264 63.0626 34.9747 62.9692 35.4605L62.3807 38.739C62.0258 40.7192 61.1944 42.1203 59.8868 42.9423C58.5977 43.7643 56.8697 44.1753 54.7027 44.1753C52.5357 44.1753 50.9478 43.7643 49.939 42.9423C49.1917 42.3258 48.8181 41.4011 48.8181 40.1681C48.8181 39.7385 48.8648 39.2621 48.9582 38.739L49.5467 35.4605C50.2005 31.7616 52.7972 29.9121 57.3368 29.9121ZM58.0934 36.0209C58.1307 35.8341 58.1494 35.6006 58.1494 35.3203C58.1494 35.0214 58.028 34.6945 57.7851 34.3396C57.5423 33.9846 57.1126 33.8072 56.4961 33.8072C55.8983 33.8072 55.3939 34.0127 54.9829 34.4236C54.5719 34.8159 54.3104 35.3484 54.1983 36.0209L53.834 38.1225C53.7967 38.3093 53.778 38.5522 53.778 38.8511C53.778 39.1313 53.8994 39.4396 54.1423 39.7758C54.3851 40.1121 54.8054 40.2802 55.4032 40.2802C56.0197 40.2802 56.5335 40.0747 56.9445 39.6637C57.3554 39.2341 57.617 38.7203 57.7291 38.1225L58.0934 36.0209Z" fill="white"/>
<path d="M64.2989 42.1577C64.2989 40.9621 64.5604 40.0934 65.0835 39.5517C65.6066 38.9912 66.4379 38.711 67.5775 38.711C69.1467 38.711 69.9313 39.4022 69.9313 40.7846C69.9313 41.9615 69.6604 42.8209 69.1187 43.3626C68.5956 43.9044 67.7643 44.1753 66.6247 44.1753C65.0742 44.1753 64.2989 43.5027 64.2989 42.1577Z" fill="white"/>
<rect x="38.4754" y="14.1689" width="31.5246" height="6.52783" rx="3.26392" fill="url(#paint0_linear_124_2)"/>
<defs>
<linearGradient id="paint0_linear_124_2" x1="90.1206" y1="17.3532" x2="38.4754" y2="17.3532" gradientUnits="userSpaceOnUse">
<stop stop-color="#FF0F00"/>
<stop offset="1" stop-color="#FFE600"/>
</linearGradient>
</defs>
</svg>
