<svg width="23" height="24" viewBox="0 0 23 24" fill="none" xmlns="http://www.w3.org/2000/svg">
<path d="M14.9976 2.41667C15.4045 2.41572 15.7262 2.73181 15.7271 3.15327L15.728 3.87166C18.3679 4.07855 20.1117 5.8774 20.1146 8.63602L20.125 16.7107C20.1288 19.7184 18.2392 21.569 15.2105 21.5737L7.81223 21.5833C4.8024 21.5872 2.88921 19.6925 2.88542 16.6762L2.87501 8.69636C2.87123 5.91955 4.55355 4.12549 7.19342 3.88315L7.19247 3.16476C7.19153 2.7433 7.50377 2.42625 7.92009 2.42625C8.33642 2.4253 8.64866 2.74139 8.64961 3.16284L8.65055 3.83334L14.2709 3.82568L14.27 3.15518C14.269 2.73373 14.5813 2.41763 14.9976 2.41667ZM15.3836 16.0172H15.3742C14.9389 16.0278 14.5898 16.3927 14.5992 16.8333C14.6002 17.2739 14.9512 17.637 15.3865 17.6465C15.8302 17.6456 16.1898 17.2806 16.1888 16.8305C16.1888 16.3803 15.8283 16.0172 15.3836 16.0172ZM7.58704 16.0182C7.15179 16.0374 6.81116 16.4023 6.8121 16.8429C6.83198 17.2835 7.19153 17.6283 7.62677 17.6082C8.05351 17.5891 8.39319 17.2241 8.37332 16.7835C8.36386 16.3525 8.01282 16.0172 7.58704 16.0182ZM11.4853 16.0134C11.0501 16.0335 10.7104 16.3975 10.7104 16.8381C10.7303 17.2787 11.0898 17.6226 11.5251 17.6034C11.9509 17.5833 12.2915 17.2193 12.2716 16.7778C12.2622 16.3477 11.9111 16.0125 11.4853 16.0134ZM7.5823 12.5699C7.14706 12.5891 6.80738 12.954 6.80832 13.3946C6.82725 13.8352 7.18774 14.1801 7.62299 14.16C8.04878 14.1408 8.38846 13.7759 8.36859 13.3352C8.35913 12.9042 8.00904 12.569 7.5823 12.5699ZM11.4816 12.5364C11.0463 12.5556 10.7057 12.9205 10.7066 13.3611C10.7255 13.8017 11.086 14.1456 11.5213 14.1264C11.9471 14.1063 12.2868 13.7423 12.2678 13.3017C12.2574 12.8707 11.9073 12.5354 11.4816 12.5364ZM15.3798 12.5412C14.9446 12.5508 14.604 12.9052 14.6049 13.3458V13.3563C14.6144 13.7969 14.9739 14.1312 15.4101 14.1216C15.8359 14.1111 16.1756 13.7462 16.1661 13.3056C16.1463 12.8841 15.8047 12.5402 15.3798 12.5412ZM14.2728 5.30077L8.65244 5.30844L8.65339 6.08334C8.65339 6.49617 8.34209 6.82185 7.92577 6.82185C7.50945 6.8228 7.19626 6.49809 7.19626 6.08526L7.19531 5.34771C5.35024 5.53257 4.32931 6.61686 4.33214 8.69445L4.33309 8.99234L18.6584 8.97318V8.63794C18.6177 6.57855 17.5845 5.49809 15.7299 5.33717L15.7309 6.07472C15.7309 6.4866 15.4101 6.81322 15.0033 6.81322C14.5869 6.81418 14.2738 6.48851 14.2738 6.07663L14.2728 5.30077Z" fill="white"/>
</svg>
