<svg width="23" height="24" viewBox="0 0 23 24" fill="none" xmlns="http://www.w3.org/2000/svg">
<path d="M15.9748 2.41705C19.2341 2.41705 21.0741 4.26568 21.0837 7.52497V16.4758C21.0837 19.7341 19.2341 21.5837 15.9748 21.5837H7.02497C3.76568 21.5837 1.91705 19.7341 1.91705 16.4758V7.52497C1.91705 4.26568 3.76568 2.41705 7.02497 2.41705H15.9748ZM11.9796 6.37497C11.7103 6.21205 11.3844 6.21205 11.1266 6.37497C10.8669 6.53693 10.7241 6.83497 10.7519 7.13205V16.8975C10.8008 17.3096 11.1448 17.6162 11.5473 17.6162C11.9604 17.6162 12.3044 17.3096 12.3428 16.8975V7.13205C12.3811 6.83497 12.2383 6.53693 11.9796 6.37497ZM7.50414 9.5183C7.24539 9.35539 6.91859 9.35539 6.6608 9.5183C6.40109 9.68122 6.2583 9.97735 6.28705 10.2754V16.8975C6.32443 17.3096 6.66943 17.6162 7.08151 17.6162C7.49455 17.6162 7.83859 17.3096 7.87693 16.8975V10.2754C7.90664 9.97735 7.76193 9.68122 7.50414 9.5183ZM16.3773 12.9971C16.1196 12.8341 15.7937 12.8341 15.5254 12.9971C15.2657 13.16 15.1229 13.4465 15.1612 13.7541V16.8975C15.1996 17.3096 15.5436 17.6162 15.9566 17.6162C16.3591 17.6162 16.7032 17.3096 16.7521 16.8975V13.7541C16.7798 13.4465 16.6371 13.16 16.3773 12.9971Z" fill="white"/>
</svg>
