<svg width="60" height="60" viewBox="0 0 60 60" fill="none" xmlns="http://www.w3.org/2000/svg">
<path d="M15 5.625C12.9492 5.625 11.25 7.32422 11.25 9.375V50.625C11.25 52.6758 12.9492 54.375 15 54.375H45C47.0508 54.375 48.75 52.6758 48.75 50.625V17.9883L48.2227 17.4023L36.9727 6.15234L36.3867 5.625H15ZM15 9.375H31.875V18.75C31.875 20.8008 33.5742 22.5 35.625 22.5H45V50.625H15V9.375ZM35.625 10.1953L44.1797 18.75H35.625V10.1953ZM20.625 28.125V31.875H39.375V28.125H20.625ZM20.625 33.75V37.5H39.375V33.75H20.625ZM20.625 39.375V43.125H30V39.375H20.625Z" fill="white"/>
</svg>
