<svg width="23" height="24" viewBox="0 0 23 24" fill="none" xmlns="http://www.w3.org/2000/svg">
<path d="M15.5164 2.41666C18.4767 2.41666 20.125 4.12249 20.125 7.04541V16.945C20.125 19.9158 18.4767 21.5833 15.5164 21.5833H7.48458C4.57125 21.5833 2.875 19.9158 2.875 16.945V7.04541C2.875 4.12249 4.57125 2.41666 7.48458 2.41666H15.5164ZM7.74333 15.5842C7.45583 15.5554 7.17792 15.6896 7.02458 15.9387C6.87125 16.1783 6.87125 16.4946 7.02458 16.7437C7.17792 16.9833 7.45583 17.1271 7.74333 17.0887H15.2567C15.639 17.0504 15.9275 16.7236 15.9275 16.3412C15.9275 15.9483 15.639 15.6225 15.2567 15.5842H7.74333ZM15.2567 11.2132H7.74333C7.33029 11.2132 6.99583 11.5496 6.99583 11.9617C6.99583 12.3737 7.33029 12.7092 7.74333 12.7092H15.2567C15.6687 12.7092 16.0042 12.3737 16.0042 11.9617C16.0042 11.5496 15.6687 11.2132 15.2567 11.2132ZM10.6078 6.87291H7.74333V6.88249C7.33029 6.88249 6.99583 7.21791 6.99583 7.62999C6.99583 8.04207 7.33029 8.37749 7.74333 8.37749H10.6078C11.0208 8.37749 11.3562 8.04207 11.3562 7.61945C11.3562 7.20832 11.0208 6.87291 10.6078 6.87291Z" fill="white"/>
</svg>
