<svg width="23" height="24" viewBox="0 0 23 24" fill="none" xmlns="http://www.w3.org/2000/svg">
<path d="M8.75417 20.4078V17.4775C8.75417 16.7294 9.36501 16.123 10.1185 16.123H12.8729C13.2348 16.123 13.5818 16.2657 13.8377 16.5197C14.0935 16.7737 14.2373 17.1182 14.2373 17.4775V20.4078C14.235 20.7188 14.3578 21.0178 14.5785 21.2385C14.7992 21.4592 15.0996 21.5833 15.4128 21.5833H17.292C18.1697 21.5856 19.0121 21.241 19.6335 20.6258C20.2549 20.0105 20.6042 19.175 20.6042 18.3037V9.95573C20.6042 9.25193 20.2899 8.58434 19.7461 8.1328L13.3535 3.06436C12.2414 2.17569 10.6482 2.20439 9.56934 3.13251L3.32256 8.1328C2.75305 8.57103 2.41266 9.2406 2.39584 9.95573V18.2952C2.39584 20.1112 3.87875 21.5833 5.70801 21.5833H7.54429C8.19494 21.5833 8.72372 21.0622 8.72843 20.4163L8.75417 20.4078Z" fill="white"/>
</svg>
