<svg width="49" height="49" viewBox="0 0 49 49" fill="none" xmlns="http://www.w3.org/2000/svg">
<path opacity="0.2" d="M26.7414 6.00518C27.7079 6.00993 28.4952 5.23028 28.5 4.2638C28.5047 3.29731 27.7251 2.50997 26.7586 2.50522L26.7414 6.00518ZM5.13029 7.38029L3.89286 6.14285L3.89285 6.14286L5.13029 7.38029ZM5.13029 43.8698L3.89283 45.1072L3.89288 45.1073L5.13029 43.8698ZM41.6198 43.8698L42.8572 45.1073L42.8573 45.1072L41.6198 43.8698ZM46.4998 26.7508C46.5002 25.7843 45.7171 25.0004 44.7506 25C43.7841 24.9996 43.0002 25.7827 42.9998 26.7492L46.4998 26.7508ZM6.21135 29.0061L6.20688 30.7561C6.22071 30.7561 6.23454 30.756 6.24836 30.7557L6.21135 29.0061ZM22.635 34.2519L21.5781 35.6467L21.5781 35.6468L22.635 34.2519ZM36.6189 33.5002L36.612 35.2502L36.6208 35.2502L36.6189 33.5002ZM34.4951 6.40531C33.8215 7.09839 33.8372 8.20631 34.5303 8.87993C35.2234 9.55355 36.3313 9.53777 37.0049 8.84469L34.4951 6.40531ZM45.7451 8.84469C46.4187 9.53777 47.5266 9.55355 48.2197 8.87993C48.9128 8.20631 48.9285 7.09839 48.2549 6.40531L45.7451 8.84469ZM39.625 20C39.625 20.9665 40.4085 21.75 41.375 21.75C42.3415 21.75 43.125 20.9665 43.125 20H39.625ZM26.7586 2.50522C25.6958 2.5 24.5681 2.5 23.375 2.5V6C24.57 6 25.6888 6 26.7414 6.00518L26.7586 2.50522ZM23.375 2.5C18.3863 2.5 14.4688 2.49628 11.4147 2.90689C8.31032 3.32427 5.83736 4.19836 3.89286 6.14285L6.36772 8.61773C7.55353 7.43193 9.16479 6.74088 11.8811 6.37568C14.6477 6.00372 18.2874 6 23.375 6V2.5ZM3.89285 6.14286C1.94836 8.08736 1.07427 10.5603 0.656891 13.6647C0.246283 16.7188 0.25 20.6363 0.25 25.625H3.75C3.75 20.5374 3.75372 16.8977 4.12568 14.1311C4.49088 11.4148 5.18193 9.80353 6.36773 8.61772L3.89285 6.14286ZM0.25 25.625C0.25 30.6136 0.246284 34.5312 0.656891 37.5852C1.07427 40.6897 1.94836 43.1627 3.89283 45.1072L6.36775 42.6324C5.18193 41.4465 4.49088 39.8352 4.12568 37.1189C3.75372 34.3522 3.75 30.7126 3.75 25.625H0.25ZM3.89288 45.1073C5.83738 47.0517 8.31034 47.9258 11.4147 48.3431C14.4688 48.7537 18.3863 48.75 23.375 48.75V45.25C18.2874 45.25 14.6477 45.2463 11.8811 44.8743C9.16478 44.5091 7.55351 43.8181 6.3677 42.6323L3.89288 45.1073ZM23.375 48.75C28.3636 48.75 32.2811 48.7537 35.3352 48.3431C38.4397 47.9258 40.9126 47.0517 42.8572 45.1073L40.3824 42.6323C39.1965 43.8181 37.5852 44.5091 34.8689 44.8743C32.1022 45.2463 28.4626 45.25 23.375 45.25V48.75ZM42.8573 45.1072C44.7271 43.2373 45.6077 40.8778 46.0436 37.9361C46.4718 35.0454 46.4977 31.3773 46.4998 26.7508L42.9998 26.7492C42.9976 31.4534 42.9641 34.8395 42.5814 37.4231C42.2061 39.9556 41.5239 41.4907 40.3823 42.6324L42.8573 45.1072ZM2.25151 31.0365C3.55944 30.8465 4.88198 30.7527 6.20688 30.7561L6.21581 27.2561C4.7198 27.2523 3.22615 27.3582 1.74849 27.5728L2.25151 31.0365ZM6.24836 30.7557C11.8322 30.6376 17.2651 32.3786 21.5781 35.6467L23.6919 32.8572C18.7328 29.0995 12.5243 27.1221 6.17434 27.2565L6.24836 30.7557ZM21.5781 35.6468C25.5759 38.6759 28.3638 42.828 29.5557 47.4381L32.9443 46.5619C31.5474 41.1591 28.2931 36.3436 23.6918 32.8571L21.5781 35.6468ZM45.5407 33.9553C42.6707 32.5017 39.6652 31.747 36.6171 31.7502L36.6208 35.2502C39.0744 35.2476 41.54 35.8523 43.9593 37.0776L45.5407 33.9553ZM36.6259 31.7502C32.0047 31.732 27.5084 33.4352 23.4239 36.6199L25.5761 39.3801C29.1484 36.5946 32.9006 35.2356 36.612 35.2502L36.6259 31.7502ZM37.0049 8.84469C37.3611 8.4782 37.8185 7.89658 38.2501 7.34704C38.713 6.75778 39.2116 6.11898 39.7215 5.51715C40.238 4.90769 40.7158 4.39687 41.1217 4.05118C41.3239 3.87895 41.4671 3.78343 41.552 3.73798C41.6509 3.6851 41.5765 3.75 41.375 3.75V0.25C40.7796 0.25 40.2687 0.455124 39.9006 0.652079C39.5187 0.856467 39.1648 1.1204 38.8523 1.38662C38.2286 1.91783 37.6059 2.59992 37.0513 3.25448C36.4902 3.91667 35.947 4.61301 35.4977 5.1851C35.0171 5.79692 34.6918 6.20288 34.4951 6.40531L37.0049 8.84469ZM48.2549 6.40531C48.0582 6.20288 47.7329 5.79692 47.2523 5.1851C46.803 4.61301 46.2598 3.91667 45.6987 3.25448C45.1441 2.59992 44.5214 1.91783 43.8977 1.38662C43.5852 1.1204 43.2313 0.856467 42.8494 0.652079C42.4813 0.455124 41.9704 0.25 41.375 0.25V3.75C41.1735 3.75 41.0991 3.6851 41.198 3.73798C41.2829 3.78343 41.4261 3.87895 41.6283 4.05118C42.0342 4.39687 42.512 4.90769 43.0285 5.51715C43.5384 6.11898 44.037 6.75778 44.4999 7.34704C44.9315 7.89658 45.3889 8.4782 45.7451 8.84469L48.2549 6.40531ZM39.625 2V20H43.125V2H39.625Z" fill="white"/>
</svg>
