<svg width="23" height="24" viewBox="0 0 23 24" fill="none" xmlns="http://www.w3.org/2000/svg">
<path d="M16.2336 3.375C17.5187 3.375 18.755 3.88292 19.6644 4.79429C20.5748 5.70375 21.0837 6.93042 21.0837 8.21458V15.7854C21.0837 18.4592 18.9083 20.625 16.2336 20.625H6.76622C4.09151 20.625 1.91705 18.4592 1.91705 15.7854V8.21458C1.91705 5.54083 4.08193 3.375 6.76622 3.375H16.2336ZM17.3175 8.35833C17.1162 8.34779 16.9246 8.41583 16.7798 8.55L12.4587 12C11.9029 12.461 11.1065 12.461 10.5421 12L6.22955 8.55C5.93151 8.32958 5.51943 8.35833 5.27122 8.61708C5.01247 8.87583 4.98372 9.28792 5.20318 9.57542L5.32872 9.7L9.68914 13.1021C10.2258 13.5237 10.8765 13.7537 11.5579 13.7537C12.2373 13.7537 12.8996 13.5237 13.4353 13.1021L17.7583 9.6425L17.835 9.56583C18.064 9.28792 18.064 8.88542 17.8244 8.6075C17.6912 8.46471 17.5082 8.3775 17.3175 8.35833Z" fill="white"/>
</svg>
