<svg width="28" height="28" viewBox="0 0 28 28" fill="none" xmlns="http://www.w3.org/2000/svg">
<path fill-rule="evenodd" clip-rule="evenodd" d="M13.6955 2.33334C19.9605 2.33334 25.0565 7.42934 25.0565 13.6943C25.0565 16.6501 23.9222 19.346 22.0659 21.3693L25.7185 25.0142C26.0603 25.356 26.0615 25.909 25.7196 26.2508C25.5493 26.4235 25.3241 26.5087 25.1001 26.5087C24.8773 26.5087 24.6533 26.4235 24.4818 26.2532L20.7852 22.5669C18.8406 24.1242 16.375 25.0565 13.6955 25.0565C7.4305 25.0565 2.33334 19.9593 2.33334 13.6943C2.33334 7.42934 7.4305 2.33334 13.6955 2.33334ZM13.6955 4.08334C8.39534 4.08334 4.08334 8.39418 4.08334 13.6943C4.08334 18.9945 8.39534 23.3065 13.6955 23.3065C18.9945 23.3065 23.3065 18.9945 23.3065 13.6943C23.3065 8.39418 18.9945 4.08334 13.6955 4.08334Z" fill="white"/>
</svg>
