<svg width="23" height="24" viewBox="0 0 23 24" fill="none" xmlns="http://www.w3.org/2000/svg">
<path d="M12.1872 2.41676C12.912 2.41676 13.5682 2.81926 13.9305 3.41343C14.1068 3.70093 14.2243 4.05551 14.195 4.42926C14.1754 4.71676 14.2635 5.00426 14.4202 5.2726C14.9197 6.08718 16.0264 6.39385 16.8882 5.93385C17.8578 5.37801 19.082 5.71343 19.6403 6.66218L20.2965 7.79301C20.8645 8.74176 20.5511 9.95885 19.5717 10.5051C18.7393 10.9938 18.4454 12.0768 18.9449 12.9009C19.1016 13.1597 19.2779 13.3801 19.5521 13.5143C19.8949 13.6963 20.1593 13.9838 20.3454 14.2713C20.7078 14.8655 20.6784 15.5938 20.3258 16.2359L19.6403 17.3859C19.2779 17.9993 18.6021 18.3826 17.9068 18.3826C17.564 18.3826 17.182 18.2868 16.8686 18.0951C16.614 17.9322 16.3202 17.8747 16.0068 17.8747C15.0372 17.8747 14.2243 18.6701 14.195 19.6188C14.195 20.7209 13.2939 21.5834 12.1676 21.5834H10.8357C9.69962 21.5834 8.79859 20.7209 8.79859 19.6188C8.779 18.6701 7.96612 17.8747 6.99654 17.8747C6.67334 17.8747 6.37953 17.9322 6.13469 18.0951C5.82129 18.2868 5.42954 18.3826 5.09655 18.3826C4.3914 18.3826 3.71563 17.9993 3.35326 17.3859L2.67749 16.2359C2.31512 15.613 2.29553 14.8655 2.6579 14.2713C2.8146 13.9838 3.10842 13.6963 3.4414 13.5143C3.71563 13.3801 3.89192 13.1597 4.05841 12.9009C4.5481 12.0768 4.25429 10.9938 3.42182 10.5051C2.45223 9.95885 2.13883 8.74176 2.69708 7.79301L3.35326 6.66218C3.9213 5.71343 5.13572 5.37801 6.1151 5.93385C6.96716 6.39385 8.07385 6.08718 8.57333 5.2726C8.73003 5.00426 8.81818 4.71676 8.79859 4.42926C8.779 4.05551 8.88673 3.70093 9.07281 3.41343C9.43518 2.81926 10.0914 2.43593 10.8063 2.41676H12.1872ZM11.5115 9.2976C9.97384 9.2976 8.73003 10.5051 8.73003 12.0097C8.73003 13.5143 9.97384 14.7122 11.5115 14.7122C13.0491 14.7122 14.2635 13.5143 14.2635 12.0097C14.2635 10.5051 13.0491 9.2976 11.5115 9.2976Z" fill="white"/>
</svg>
