<svg width="18" height="18" viewBox="0 0 18 18" fill="none" xmlns="http://www.w3.org/2000/svg">
<path d="M8.60927 1.43481C7.19031 1.43481 5.80321 1.85559 4.62339 2.64392C3.44357 3.43225 2.52401 4.55274 1.981 5.86368C1.43798 7.17463 1.29591 8.61716 1.57273 10.0089C1.84956 11.4006 2.53285 12.6789 3.53621 13.6823C4.53957 14.6856 5.81792 15.3689 7.20962 15.6457C8.60131 15.9226 10.0438 15.7805 11.3548 15.2375C12.6657 14.6945 13.7862 13.7749 14.5746 12.5951C15.3629 11.4153 15.7837 10.0282 15.7837 8.6092C15.7837 7.66705 15.5981 6.73412 15.2375 5.86368C14.877 4.99325 14.3485 4.20235 13.6823 3.53614C13.0161 2.86994 12.2252 2.34148 11.3548 1.98093C10.4844 1.62039 9.55142 1.43481 8.60927 1.43481ZM8.60927 14.3487C7.4741 14.3487 6.36442 14.0121 5.42057 13.3814C4.47671 12.7508 3.74106 11.8544 3.30665 10.8056C2.87224 9.75686 2.75858 8.60284 2.98004 7.48948C3.2015 6.37612 3.74814 5.35344 4.55082 4.55076C5.35351 3.74807 6.37619 3.20144 7.48955 2.97998C8.6029 2.75852 9.75693 2.87218 10.8057 3.30659C11.8544 3.741 12.7508 4.47664 13.3815 5.4205C14.0122 6.36436 14.3488 7.47404 14.3488 8.6092C14.3488 10.1314 13.7441 11.5913 12.6677 12.6677C11.5914 13.744 10.1315 14.3487 8.60927 14.3487Z" fill="#D7F8F1" fill-opacity="0.74"/>
<path d="M11.479 7.89185H9.32672V5.73953C9.32672 5.54926 9.25114 5.36677 9.11659 5.23223C8.98204 5.09768 8.79956 5.02209 8.60928 5.02209C8.41901 5.02209 8.23652 5.09768 8.10198 5.23223C7.96743 5.36677 7.89185 5.54926 7.89185 5.73953V8.60929C7.89185 8.79957 7.96743 8.98205 8.10198 9.1166C8.23652 9.25114 8.41901 9.32673 8.60928 9.32673H11.479C11.6693 9.32673 11.8518 9.25114 11.9863 9.1166C12.1209 8.98205 12.1965 8.79957 12.1965 8.60929C12.1965 8.41901 12.1209 8.23653 11.9863 8.10198C11.8518 7.96744 11.6693 7.89185 11.479 7.89185Z" fill="#D7F8F1" fill-opacity="0.74"/>
</svg>
